<svg width="7" height="11" viewBox="0 0 7 11" fill="none" xmlns="http://www.w3.org/2000/svg">
<path d="M7 7.50155C7 7.85703 6.95269 8.17903 6.85806 8.46754C6.76343 8.75605 6.63145 9.01108 6.46211 9.23261C6.29776 9.45415 6.09854 9.64477 5.86446 9.80448C5.63536 9.96419 5.38136 10.0956 5.10245 10.1986C4.82355 10.3016 4.52472 10.3789 4.20598 10.4304C3.89221 10.4768 3.54109 10.5 3.15261 10.5H0.582711C0.418356 10.5 0.278904 10.4511 0.164354 10.3532C0.0547848 10.2501 0 10.0853 0 9.85858V1.14142C0 0.914735 0.0547848 0.752447 0.164354 0.654559C0.278904 0.55152 0.418356 0.5 0.582711 0.5H3.01067C3.60334 0.5 4.10388 0.55152 4.51227 0.654559C4.92565 0.757599 5.27179 0.914735 5.55069 1.12597C5.83458 1.33205 6.05123 1.5948 6.20064 1.91422C6.35005 2.23364 6.42476 2.60974 6.42476 3.0425C6.42476 3.28465 6.39488 3.51391 6.33511 3.73029C6.27535 3.94152 6.18819 4.13472 6.07364 4.30989C5.95909 4.48506 5.81715 4.63962 5.64781 4.77357C5.48346 4.90752 5.2942 5.01571 5.08004 5.09815C5.35397 5.14966 5.60548 5.23982 5.83458 5.36862C6.06866 5.49742 6.27037 5.66486 6.4397 5.87094C6.61402 6.07187 6.75098 6.30886 6.85059 6.58192C6.9502 6.85497 7 7.16151 7 7.50155ZM4.45998 3.2898C4.45998 3.08887 4.4301 2.90855 4.37033 2.74884C4.31057 2.58913 4.22092 2.45775 4.10139 2.35471C3.98186 2.24652 3.82995 2.16409 3.64568 2.10742C3.46638 2.05075 3.22483 2.02241 2.92102 2.02241H1.92743V4.61901H3.02561C3.3095 4.61901 3.53611 4.58552 3.70544 4.51855C3.87478 4.44642 4.01423 4.35111 4.1238 4.23261C4.23835 4.10896 4.32302 3.96728 4.3778 3.80757C4.43259 3.64271 4.45998 3.47012 4.45998 3.2898ZM4.96051 7.5711C4.96051 7.33926 4.92316 7.13318 4.84845 6.95286C4.77375 6.76739 4.66418 6.61283 4.51974 6.48918C4.37531 6.36553 4.19104 6.27022 3.96692 6.20325C3.7428 6.13627 3.45144 6.10278 3.09285 6.10278H1.92743V8.94668H3.34685C3.62078 8.94668 3.84988 8.91834 4.03415 8.86167C4.22341 8.79984 4.38527 8.71226 4.51974 8.59892C4.6592 8.48042 4.76628 8.33617 4.84098 8.16615C4.92067 7.99098 4.96051 7.79263 4.96051 7.5711Z" fill="#444444"/>
</svg>
