<svg width="8" height="11" viewBox="0 0 8 11" fill="none" xmlns="http://www.w3.org/2000/svg">
<path d="M8 5.66767C8 6.21735 7.9117 6.70929 7.7351 7.14349C7.5585 7.57769 7.29864 7.94491 6.95553 8.24515C6.61242 8.54539 6.18858 8.77404 5.68401 8.93109C5.17944 9.08814 4.59918 9.16667 3.94324 9.16667C3.32766 9.16667 2.77515 9.09738 2.28571 8.95881C1.79628 8.81561 1.38253 8.60082 1.04447 8.31444C0.706402 8.02805 0.446547 7.67238 0.264901 7.24742C0.0883002 6.81784 0 6.31666 0 5.74389V0.291005C0 0.244814 0.0151372 0.203242 0.0454115 0.166289C0.0756859 0.129336 0.128666 0.0993114 0.204352 0.0762157C0.285084 0.0531201 0.388521 0.0346435 0.514664 0.0207861C0.640807 0.00692871 0.802271 0 0.999054 0C1.19079 0 1.34973 0.00692871 1.47588 0.0207861C1.60202 0.0346435 1.70293 0.0531201 1.77862 0.0762157C1.8543 0.0993114 1.90728 0.129336 1.93756 0.166289C1.97288 0.203242 1.99054 0.244814 1.99054 0.291005V5.58453C1.99054 5.9402 2.03847 6.24968 2.13434 6.51298C2.23021 6.77165 2.36645 6.98644 2.54305 7.15734C2.72469 7.32825 2.93914 7.45759 3.18638 7.54535C3.43866 7.6285 3.7187 7.67007 4.02649 7.67007C4.33933 7.67007 4.61936 7.62619 4.8666 7.53842C5.11384 7.45066 5.32324 7.32363 5.4948 7.15734C5.66635 6.98644 5.79754 6.77858 5.88836 6.53376C5.98423 6.28433 6.03217 6.00256 6.03217 5.68846V0.291005C6.03217 0.244814 6.0473 0.203242 6.07758 0.166289C6.10785 0.129336 6.16083 0.0993113 6.23652 0.0762157C6.3122 0.05312 6.41312 0.0346435 6.53926 0.0207861C6.67045 0.0069287 6.83191 0 7.02365 0C7.21539 0 7.37181 0.0069287 7.4929 0.0207861C7.61905 0.0346435 7.71996 0.05312 7.79565 0.0762157C7.87133 0.0993113 7.92431 0.129336 7.95459 0.166289C7.98486 0.203242 8 0.244814 8 0.291005V5.66767Z" fill="#444444"/>
<path d="M0 10.0833H8V11H0V10.0833Z" fill="#444444"/>
</svg>
