<svg width="16" height="16" viewBox="0 0 16 16" fill="none" xmlns="http://www.w3.org/2000/svg">
<path d="M8 13.192L11.308 9.885L10.6 9.177L8.5 11.277V6.577H7.5V11.277L5.4 9.177L4.692 9.885L8 13.192ZM1 3.808V14.385C1 14.5643 1.05767 14.7117 1.173 14.827C1.28833 14.9423 1.436 15 1.616 15H14.385C14.5643 15 14.7117 14.9423 14.827 14.827C14.9423 14.7117 15 14.5643 15 14.385V3.808H1ZM1.77 16C1.322 16 0.915 15.817 0.549 15.451C0.183 15.085 0 14.6783 0 14.231V3.486C0 3.29133 0.0309999 3.108 0.0929999 2.936C0.155 2.764 0.248333 2.60567 0.373 2.461L1.931 0.591C2.07567 0.395667 2.25667 0.248333 2.474 0.149C2.69133 0.0496668 2.92433 0 3.173 0H12.789C13.037 0 13.273 0.0496668 13.497 0.149C13.721 0.248333 13.9053 0.395333 14.05 0.59L15.627 2.5C15.7517 2.64467 15.845 2.80633 15.907 2.985C15.969 3.163 16 3.34967 16 3.545V14.23C16 14.6773 15.817 15.084 15.451 15.45C15.085 15.816 14.6783 15.999 14.231 15.999L1.77 16ZM1.38 2.808H14.6L13.27 1.21C13.2053 1.146 13.1313 1.095 13.048 1.057C12.9647 1.019 12.878 1 12.788 1H3.192C3.10267 1 3.016 1.01933 2.932 1.058C2.848 1.09667 2.77467 1.148 2.712 1.212L1.38 2.808Z" fill="#3D3D3D"/>
</svg>
