<svg width="32" height="32" viewBox="0 0 32 32" fill="none" xmlns="http://www.w3.org/2000/svg">
<circle cx="16" cy="16" r="15.25" transform="matrix(1 0 0 -1 0 32)" stroke="#3D3D3D" stroke-width="1.5"/>
<circle cx="16" cy="16" r="15.25" stroke="#3D3D3D" stroke-width="1.5"/>
<g clip-path="url(#clip0_6_14860)">
<path fill-rule="evenodd" clip-rule="evenodd" d="M16.707 19.7071C16.5194 19.8946 16.2651 19.9999 16 19.9999C15.7348 19.9999 15.4805 19.8946 15.293 19.7071L9.63598 14.0501C9.54047 13.9579 9.46428 13.8475 9.41188 13.7255C9.35947 13.6035 9.33188 13.4723 9.33073 13.3395C9.32957 13.2067 9.35487 13.075 9.40516 12.9521C9.45544 12.8292 9.52969 12.7176 9.62358 12.6237C9.71747 12.5298 9.82913 12.4556 9.95202 12.4053C10.0749 12.355 10.2066 12.3297 10.3394 12.3308C10.4722 12.332 10.6034 12.3596 10.7254 12.412C10.8474 12.4644 10.9577 12.5406 11.05 12.6361L16 17.5861L20.95 12.6361C21.1386 12.4539 21.3912 12.3531 21.6534 12.3554C21.9156 12.3577 22.1664 12.4629 22.3518 12.6483C22.5372 12.8337 22.6424 13.0845 22.6447 13.3467C22.6469 13.6089 22.5461 13.8615 22.364 14.0501L16.707 19.7071Z" fill="#3D3D3D"/>
</g>
<defs>
<clipPath id="clip0_6_14860">
<rect width="24" height="24" fill="white" transform="translate(4 4)"/>
</clipPath>
</defs>
</svg>
