<svg width="16" height="19" viewBox="0 0 16 19" fill="none" xmlns="http://www.w3.org/2000/svg">
<path d="M1 11.8333C1 11.8333 1.83333 11 4.33333 11C6.83333 11 8.5 12.6667 11 12.6667C13.5 12.6667 14.3333 11.8333 14.3333 11.8333V1.83333C14.3333 1.83333 13.5 2.66667 11 2.66667C8.5 2.66667 6.83333 1 4.33333 1C1.83333 1 1 1.83333 1 1.83333V11.8333ZM1 17.6667V11.8333Z" fill="#CE754C"/>
<path d="M1 11.8333C1 11.8333 1.83333 11 4.33333 11C6.83333 11 8.5 12.6667 11 12.6667C13.5 12.6667 14.3333 11.8333 14.3333 11.8333V1.83333C14.3333 1.83333 13.5 2.66667 11 2.66667C8.5 2.66667 6.83333 1 4.33333 1C1.83333 1 1 1.83333 1 1.83333V11.8333ZM1 11.8333V17.6667" stroke="#CE754C" stroke-width="2" stroke-linecap="round" stroke-linejoin="round"/>
</svg>
