<svg width="18" height="16" viewBox="0 0 18 16" fill="none" xmlns="http://www.w3.org/2000/svg">
<path d="M12.9999 4.61621V1.61621H4.9999V4.61621H3.9999V0.616211H13.9999V4.61621H12.9999ZM14.6149 8.11621C14.8982 8.11621 15.1359 8.02021 15.3279 7.82821C15.5199 7.63621 15.6156 7.39888 15.6149 7.11621C15.6142 6.83354 15.5186 6.59588 15.3279 6.40321C15.1372 6.21054 14.8996 6.11454 14.6149 6.11521C14.3302 6.11588 14.0929 6.21188 13.9029 6.40321C13.7129 6.59454 13.6169 6.83221 13.6149 7.11621C13.6129 7.40021 13.7089 7.63754 13.9029 7.82821C14.0969 8.01888 14.3336 8.11488 14.6149 8.11621ZM12.9999 15.0002V10.4622H4.9999V15.0002H12.9999ZM13.9999 16.0002H3.9999V12.0002H0.576904V6.61621C0.576904 6.04954 0.769238 5.57454 1.1539 5.19121C1.53857 4.80788 2.0129 4.61588 2.5769 4.61521H15.4229C15.9896 4.61521 16.4646 4.80721 16.8479 5.19121C17.2312 5.57521 17.4229 6.04988 17.4229 6.61521V12.0002H13.9999V16.0002ZM16.4229 11.0002V6.61621C16.4229 6.33288 16.3272 6.09521 16.1359 5.90321C15.9446 5.71121 15.7069 5.61521 15.4229 5.61521H2.5769C2.29357 5.61521 2.05624 5.71121 1.8649 5.90321C1.67357 6.09521 1.57757 6.33288 1.5769 6.61621V11.0002H3.9999V9.46221H13.9999V11.0002H16.4229Z" fill="#3D3D3D"/>
</svg>
